<?xml version="1.0" standalone="no"?><svg xmlns="http://www.w3.org/2000/svg" viewBox="0 0 1440 320"><path fill="#ffd700" fill-opacity="2" d="M0,128L17.1,138.7C34.3,149,69,171,103,181.3C137.1,192,171,192,206,202.7C240,213,274,235,309,213.3C342.9,192,377,128,411,96C445.7,64,480,64,514,96C548.6,128,583,192,617,197.3C651.4,203,686,149,720,149.3C754.3,149,789,203,823,218.7C857.1,235,891,213,926,170.7C960,128,994,64,1029,58.7C1062.9,53,1097,107,1131,160C1165.7,213,1200,267,1234,256C1268.6,245,1303,171,1337,133.3C1371.4,96,1406,96,1423,96L1440,96L1440,320L1422.9,320C1405.7,320,1371,320,1337,320C1302.9,320,1269,320,1234,320C1200,320,1166,320,1131,320C1097.1,320,1063,320,1029,320C994.3,320,960,320,926,320C891.4,320,857,320,823,320C788.6,320,754,320,720,320C685.7,320,651,320,617,320C582.9,320,549,320,514,320C480,320,446,320,411,320C377.1,320,343,320,309,320C274.3,320,240,320,206,320C171.4,320,137,320,103,320C68.6,320,34,320,17,320L0,320Z"></path></svg>