<?xml version="1.0" standalone="no"?><svg xmlns="http://www.w3.org/2000/svg" viewBox="0 0 1440 320"><path fill="#273036" fill-opacity="2" d="M0,288L0,320L48,320L48,288L96,288L96,32L144,32L144,224L192,224L192,64L240,64L240,160L288,160L288,256L336,256L336,64L384,64L384,320L432,320L432,32L480,32L480,192L528,192L528,128L576,128L576,96L624,96L624,96L672,96L672,96L720,96L720,192L768,192L768,96L816,96L816,224L864,224L864,32L912,32L912,160L960,160L960,224L1008,224L1008,96L1056,96L1056,128L1104,128L1104,288L1152,288L1152,160L1200,160L1200,160L1248,160L1248,32L1296,32L1296,288L1344,288L1344,320L1392,320L1392,160L1440,160L1440,0L1392,0L1392,0L1344,0L1344,0L1296,0L1296,0L1248,0L1248,0L1200,0L1200,0L1152,0L1152,0L1104,0L1104,0L1056,0L1056,0L1008,0L1008,0L960,0L960,0L912,0L912,0L864,0L864,0L816,0L816,0L768,0L768,0L720,0L720,0L672,0L672,0L624,0L624,0L576,0L576,0L528,0L528,0L480,0L480,0L432,0L432,0L384,0L384,0L336,0L336,0L288,0L288,0L240,0L240,0L192,0L192,0L144,0L144,0L96,0L96,0L48,0L48,0L0,0L0,0Z"></path></svg>